<svg width="1483" height="103" viewBox="0 0 1483 103" fill="none" xmlns="http://www.w3.org/2000/svg">
<rect width="1483" height="103" rx="40" fill="#3F3F3F" fill-opacity="0.3"/>
<path d="M111.834 58.7958C106.843 62.4695 99.616 64.4308 93.3888 64.4308C85.0697 64.4724 77.0348 61.4069 70.8575 55.8346C70.394 55.414 70.8146 54.8389 71.3725 55.1651C77.7886 58.8988 85.7196 61.1434 93.9123 61.1434C99.44 61.1434 105.517 60.0018 111.109 57.6285C111.95 57.268 112.658 58.1821 111.834 58.7958Z" fill="white"/>
<path d="M113.903 56.4226C114.547 57.238 113.195 60.6069 112.594 62.109C112.414 62.5639 112.804 62.7485 113.216 62.4051C115.894 60.1649 116.581 55.4784 116.036 54.8003C115.491 54.1222 110.813 53.5471 107.963 55.5556C107.521 55.8603 107.594 56.2852 108.083 56.2294C109.693 56.0363 113.268 55.6071 113.903 56.4226ZM108.195 41.3932V39.4404C108.195 39.1443 108.422 38.9469 108.689 38.9469H117.422C117.701 38.9469 117.924 39.1486 117.924 39.4404V41.1142C117.924 41.3931 117.688 41.7579 117.268 42.3373L112.744 48.7963C114.426 48.7534 116.199 49.0066 117.722 49.8649C118.066 50.058 118.16 50.3413 118.19 50.6245V52.706C118.19 52.9892 117.873 53.3197 117.547 53.148C116.119 52.4131 114.536 52.0311 112.931 52.0341C111.325 52.0371 109.744 52.425 108.319 53.1652C108.019 53.3283 107.701 52.9978 107.701 52.7146V50.7404C107.701 50.4228 107.701 49.8821 108.023 49.3971L113.259 41.8867H108.697C108.418 41.8867 108.191 41.685 108.191 41.3974M76.3465 53.56H73.6857C73.5671 53.551 73.4552 53.5012 73.3692 53.419C73.2831 53.3369 73.2282 53.2275 73.2136 53.1094V39.4748C73.2136 39.2001 73.4411 38.9855 73.7286 38.9855H76.2049C76.4624 38.9941 76.6684 39.1958 76.6856 39.4404V41.2215H76.7328C77.3765 39.5005 78.5954 38.698 80.2305 38.698C81.8957 38.698 82.9342 39.5005 83.681 41.2215C83.9463 40.4663 84.4446 39.8149 85.1042 39.3613C85.7637 38.9078 86.5503 38.6755 87.3504 38.698C87.9435 38.6874 88.5308 38.8167 89.0647 39.0755C89.5986 39.3342 90.064 39.7151 90.4232 40.1872C91.2644 41.3331 91.0927 43.0025 91.0927 44.4617V53.0665C91.0916 53.1328 91.0774 53.1982 91.0508 53.259C91.0243 53.3198 90.986 53.3747 90.9381 53.4206C90.8902 53.4665 90.8337 53.5024 90.7718 53.5264C90.71 53.5503 90.644 53.5617 90.5777 53.56H87.9255C87.7985 53.5516 87.6792 53.4966 87.5904 53.4055C87.5017 53.3143 87.4498 53.1936 87.4448 53.0665V45.8393C87.4448 45.2642 87.4963 43.8308 87.3718 43.2858C87.1744 42.3716 86.5779 42.1141 85.8097 42.1141C85.1659 42.1141 84.4964 42.5433 84.2217 43.23C83.9471 43.9166 83.9771 45.0668 83.9771 45.8393V53.0665C83.976 53.1328 83.9618 53.1982 83.9352 53.259C83.9087 53.3198 83.8704 53.3747 83.8225 53.4206C83.7746 53.4665 83.7181 53.5024 83.6563 53.5264C83.5944 53.5503 83.5284 53.5617 83.4621 53.56H80.8142C80.687 53.5535 80.567 53.4989 80.4786 53.4073C80.3901 53.3156 80.3398 53.1938 80.3378 53.0665L80.3335 45.8393C80.3335 44.3201 80.5824 42.0841 78.6984 42.0841C76.7886 42.0841 76.8615 44.2643 76.8615 45.8393V53.0665C76.8604 53.1328 76.8462 53.1982 76.8197 53.259C76.7931 53.3198 76.7548 53.3747 76.7069 53.4206C76.659 53.4665 76.6025 53.5024 76.5407 53.5264C76.4788 53.5503 76.4128 53.5617 76.3465 53.56ZM125.447 38.698C129.387 38.698 131.52 42.0841 131.52 46.3886C131.52 50.543 129.16 53.8433 125.443 53.8433C121.572 53.8433 119.465 50.4571 119.465 46.2427C119.465 41.994 121.602 38.698 125.447 38.698ZM125.46 41.479C123.503 41.479 123.379 44.1484 123.379 45.8136C123.379 47.4787 123.353 51.0365 125.439 51.0365C127.499 51.0365 127.593 48.1611 127.593 46.4144C127.593 45.2642 127.55 43.8909 127.198 42.8008C126.898 41.8524 126.306 41.479 125.46 41.479ZM136.632 53.56H133.984C133.857 53.5506 133.739 53.4951 133.651 53.4041C133.563 53.3131 133.512 53.1929 133.507 53.0665L133.503 39.4276C133.518 39.3028 133.579 39.1882 133.674 39.1064C133.77 39.0245 133.892 38.9814 134.018 38.9855H136.477C136.586 38.9909 136.691 39.0309 136.775 39.0995C136.86 39.1682 136.921 39.262 136.949 39.3675V41.4489H137.001C137.743 39.5864 138.786 38.698 140.623 38.698C141.812 38.698 142.975 39.1271 143.721 40.3031C144.417 41.3931 144.417 43.23 144.417 44.5518V53.1309C144.396 53.2521 144.333 53.362 144.239 53.4407C144.144 53.5194 144.025 53.5617 143.902 53.56H141.241C141.125 53.5519 141.016 53.5052 140.93 53.4273C140.845 53.3495 140.788 53.245 140.769 53.1309V45.7234C140.769 44.2342 140.94 42.0541 139.108 42.0541C138.464 42.0541 137.863 42.4832 137.571 43.1441C137.198 43.9767 137.151 44.805 137.151 45.7234V53.0665C137.145 53.2001 137.088 53.3262 136.991 53.4183C136.894 53.5104 136.765 53.5612 136.632 53.56ZM101.238 47.0496V46.4745C99.3112 46.4745 97.2856 46.8822 97.2856 49.1482C97.2856 50.2941 97.8821 51.0709 98.9035 51.0709C99.646 51.0709 100.32 50.6116 100.74 49.8649C101.264 48.9465 101.238 48.0839 101.238 47.0496ZM103.916 53.5214C103.83 53.594 103.725 53.639 103.613 53.6505C103.501 53.662 103.388 53.6394 103.29 53.5858C102.406 52.8562 102.247 52.5129 101.762 51.8133C100.303 53.3025 99.2726 53.7446 97.3843 53.7446C95.1483 53.7446 93.4102 52.3712 93.4102 49.6074C93.4102 47.453 94.5732 45.9809 96.2427 45.2642C97.6847 44.6291 99.6975 44.5175 101.238 44.3415V43.9982C101.238 43.3673 101.281 42.6206 100.912 42.0755C100.59 41.5863 99.9679 41.3846 99.4185 41.3846C98.41 41.3846 97.5087 41.8996 97.2856 42.9768C97.2427 43.2171 97.0667 43.4531 96.8221 43.466L94.2471 43.1871C94.0325 43.1399 93.7879 42.9639 93.8522 42.6291C94.4445 39.5091 97.2684 38.5649 99.7962 38.5649C101.084 38.5649 102.775 38.9083 103.796 39.8911C105.088 41.0927 104.963 42.7064 104.963 44.4574V48.5989C104.963 49.8434 105.478 50.3885 105.968 51.0623C106.135 51.2983 106.174 51.5859 105.955 51.7661C105.414 52.221 104.453 53.0579 103.92 53.53L103.916 53.5214ZM66.4113 47.0496V46.4745C64.4887 46.4745 62.463 46.8822 62.463 49.1482C62.463 50.2941 63.0553 51.0709 64.0767 51.0709C64.8234 51.0709 65.4929 50.6116 65.9135 49.8649C66.4371 48.9465 66.4113 48.0839 66.4113 47.0496ZM69.0893 53.5214C69.0035 53.594 68.8978 53.639 68.786 53.6505C68.6742 53.662 68.5615 53.6394 68.4628 53.5858C67.5787 52.8562 67.4242 52.5129 66.9392 51.8133C65.48 53.3025 64.45 53.7446 62.5617 53.7446C60.3258 53.7446 58.5833 52.3712 58.5833 49.6074C58.5833 47.453 59.7507 45.9809 61.4158 45.2642C62.8578 44.6291 64.8706 44.5175 66.4113 44.3415V43.9982C66.4113 43.3673 66.4585 42.6206 66.0895 42.0755C65.7633 41.5863 65.1453 41.3846 64.6003 41.3846C63.5874 41.3846 62.6819 41.8996 62.463 42.9768C62.4201 43.2171 62.2398 43.4531 62.0038 43.466L59.4245 43.1871C59.2099 43.1399 58.9696 42.9639 59.0297 42.6291C59.6219 39.5091 62.4415 38.5649 64.9693 38.5649C66.2611 38.5649 67.952 38.9083 68.9692 39.8911C70.261 41.0927 70.1408 42.7064 70.1408 44.4574V48.5989C70.1408 49.8434 70.6558 50.3885 71.1408 51.0623C71.3124 51.2983 71.351 51.5859 71.1322 51.7661C70.5914 52.221 69.6301 53.0579 69.0979 53.53L69.0893 53.5214Z" fill="white"/>
<path d="M326.587 36.6079C326.553 36.3627 326.338 36.2269 326.161 36.212C324.852 36.1136 323.543 36.016 322.233 35.9192C322.233 35.9192 319.629 33.3334 319.343 33.0471C319.057 32.7611 318.498 32.8481 318.281 32.9119C318.249 32.9213 317.712 33.0871 316.824 33.3621C315.953 30.8583 314.418 28.5575 311.716 28.5575C311.642 28.5575 311.565 28.5605 311.488 28.5649C310.72 27.5488 309.768 27.1074 308.946 27.1074C302.653 27.1074 299.647 34.9742 298.704 38.9719C296.259 39.7296 294.522 40.2683 294.3 40.338C292.935 40.7661 292.892 40.8091 292.713 42.0953C292.578 43.069 289.006 70.6879 289.006 70.6879L316.835 75.902L331.914 72.64C331.914 72.64 326.62 36.8531 326.587 36.6079ZM315.285 33.8378L312.931 34.5666C312.932 34.4006 312.932 34.2374 312.932 34.0588C312.932 32.5027 312.716 31.2499 312.37 30.2567C313.762 30.4314 314.689 32.0151 315.285 33.8378ZM310.643 30.5652C311.03 31.5349 311.282 32.9265 311.282 34.8044C311.282 34.9005 311.281 34.9883 311.28 35.0772C309.749 35.5515 308.085 36.0665 306.417 36.5832C307.353 32.9692 309.109 31.2237 310.643 30.5652ZM308.773 28.7953C309.045 28.7953 309.319 28.8876 309.581 29.0678C307.564 30.0168 305.402 32.407 304.489 37.1802L300.645 38.3707C301.714 34.73 304.253 28.7953 308.773 28.7953Z" fill="#95BF46"/>
<path d="M326.161 36.212C324.852 36.1136 323.543 36.0161 322.233 35.9192C322.233 35.9192 319.629 33.3334 319.343 33.0471C319.236 32.9407 319.091 32.8861 318.941 32.8625L316.836 75.9017L331.914 72.6401C331.914 72.6401 326.62 36.8532 326.587 36.6079C326.553 36.3627 326.338 36.227 326.161 36.212Z" fill="#5E8E3E"/>
<path d="M311.716 44.5436L309.857 50.0741C309.857 50.0741 308.228 49.2047 306.231 49.2047C303.304 49.2047 303.157 51.0418 303.157 51.5047C303.157 54.0306 309.741 54.9985 309.741 60.915C309.741 65.5699 306.789 68.5673 302.808 68.5673C298.031 68.5673 295.588 65.5943 295.588 65.5943L296.867 61.3682C296.867 61.3682 299.378 63.5241 301.497 63.5241C302.882 63.5241 303.445 62.4339 303.445 61.6374C303.445 58.3426 298.043 58.1956 298.043 52.7814C298.043 48.2246 301.314 43.8149 307.916 43.8149C310.46 43.8149 311.716 44.5436 311.716 44.5436Z" fill="white"/>
<g clip-path="url(#clip0_181_5598)">
<path d="M617.703 21.1777V65.2122C623.134 65.4645 628.551 65.7706 633.954 66.1307V75.4669C625.386 74.8955 616.809 74.462 608.227 74.1665V21.1777H617.703ZM693 21.183L680.661 49.7888L692.997 81.6219L692.983 81.6276C689.387 81.1159 685.787 80.6291 682.183 80.1673L675.256 62.3009L668.263 78.5088C664.946 78.1423 661.626 77.7966 658.304 77.4717L670.333 49.5972L659.317 21.1834H669.567L675.735 37.0846L682.593 21.183H693ZM575.707 73.7038V21.1826H602.158V30.6027H585.182V42.8107H598.026V52.1469H585.182V73.702L575.707 73.7038ZM540.325 30.6031V21.1821H569.632V30.6027H559.716V73.9591C556.553 74.0426 553.394 74.1402 550.241 74.2593V30.6031H540.325ZM507.932 76.9733V21.1839H534.251V30.6036H517.406V43.3635C521.276 43.3139 526.779 43.2581 530.202 43.266V52.603C525.917 52.5503 521.08 52.6619 517.406 52.6984V66.833C523.017 66.3908 528.632 66.007 534.251 65.6816V75.0186C525.468 75.5254 516.694 76.1773 507.932 76.9742M489.345 55.3909L489.344 21.1821H498.82V77.854C495.356 78.2102 491.898 78.5888 488.447 78.9895L477.475 47.4676V80.3395C474.311 80.7515 471.152 81.1815 468 81.6298V21.183H477.005L489.345 55.3909ZM641.771 76.0298V21.183H651.247V76.8125C648.092 76.5312 644.934 76.2715 641.771 76.0298Z" fill="#DB202C"/>
</g>
<path d="M859.548 66.335C857.792 68.0371 855.875 67.7683 854.03 66.9621C852.077 66.1379 850.285 66.1021 848.225 66.9621C845.645 68.0729 844.283 67.7504 842.742 66.335C833.999 57.3229 835.289 43.5987 845.215 43.0971C847.633 43.2225 849.318 44.4229 850.733 44.5304C852.847 44.1004 854.872 42.8642 857.129 43.0254C859.835 43.2404 861.877 44.3154 863.221 46.2504C857.631 49.6008 858.957 56.9646 864.081 59.025C863.06 61.7125 861.734 64.3821 859.53 66.3529L859.548 66.335ZM850.554 42.9896C850.285 38.9942 853.528 35.6975 857.255 35.375C857.774 39.9975 853.062 43.4375 850.554 42.9896Z" fill="white"/>
<path fill-rule="evenodd" clip-rule="evenodd" d="M1046.22 39.1715C1040.31 36.5557 1034.54 35.7244 1029.5 35.7638C1024.46 35.7244 1018.68 36.5557 1012.77 39.1715C1012.07 37.8744 1011.78 37.0896 1011.78 37.0896C1018.24 34.4935 1024.29 33.6048 1029.5 33.5833C1034.71 33.6048 1040.76 34.4935 1047.22 37.0896C1047.22 37.0896 1047.01 37.7274 1046.22 39.1715ZM1034.46 41.1029L1029.5 69.4167L1024.5 41.0976C1019.81 41.1011 1018.32 41.6279 1018.11 43.7761C1018.11 43.7761 1014.93 42.5757 1013.34 40.139C1019.57 37.2007 1025.84 37.0699 1025.84 37.0699L1029.5 41.5885L1033.15 37.0699C1033.15 37.0699 1039.42 37.2025 1045.66 40.139C1044.06 42.5757 1040.89 43.7761 1040.89 43.7761C1040.68 41.6279 1039.19 41.1029 1034.46 41.1029" fill="white"/>
<g clip-path="url(#clip1_181_5598)">
<path d="M1209.9 38.0535C1208.43 36.3784 1205.78 35.6603 1202.38 35.6603H1192.52C1192.18 35.6602 1191.85 35.7802 1191.6 35.9985C1191.34 36.2169 1191.17 36.5193 1191.12 36.8514L1187.01 62.8987C1186.93 63.4124 1187.33 63.8775 1187.85 63.8775H1193.94L1195.47 54.1774L1195.42 54.4812C1195.53 53.7955 1196.12 53.2898 1196.81 53.2898H1199.71C1205.39 53.2898 1209.84 50.9809 1211.14 44.3016C1211.18 44.1041 1211.21 43.9118 1211.24 43.724C1211.08 43.6371 1211.08 43.6371 1211.24 43.724C1211.63 41.2553 1211.24 39.5749 1209.9 38.0535Z" fill="#27346A"/>
<path d="M1197.8 42.8347C1197.97 42.7553 1198.15 42.7142 1198.33 42.7144H1206.07C1206.98 42.7144 1207.84 42.774 1208.62 42.8997C1208.83 42.9345 1209.05 42.9761 1209.27 43.0243C1209.57 43.0918 1209.88 43.1744 1210.17 43.2719C1210.56 43.4 1210.91 43.5492 1211.24 43.724C1211.63 41.2543 1211.24 39.5749 1209.9 38.0535C1208.43 36.3784 1205.78 35.6603 1202.38 35.6603H1192.52C1191.82 35.6603 1191.23 36.1659 1191.12 36.8514L1187.01 62.8978C1186.93 63.4123 1187.33 63.8767 1187.85 63.8767H1193.94L1197.11 43.7565C1197.14 43.5587 1197.22 43.3715 1197.34 43.2109C1197.46 43.0504 1197.62 42.9212 1197.8 42.8347Z" fill="#27346A"/>
<path d="M1211.14 44.3017C1209.84 50.9799 1205.39 53.2898 1199.71 53.2898H1196.81C1196.12 53.2898 1195.53 53.7955 1195.42 54.4812L1193.52 66.5421C1193.45 66.9916 1193.8 67.3989 1194.25 67.3989H1199.38C1199.68 67.3988 1199.96 67.2938 1200.19 67.1028C1200.41 66.9118 1200.56 66.6473 1200.6 66.3569L1200.65 66.0953L1201.62 59.9638L1201.68 59.6249C1201.73 59.3345 1201.88 59.07 1202.1 58.879C1202.32 58.688 1202.61 58.583 1202.9 58.5829H1203.67C1208.64 58.5829 1212.54 56.5627 1213.68 50.7202C1214.15 48.2786 1213.9 46.2401 1212.65 44.8082C1212.27 44.3745 1211.79 44.0164 1211.24 43.724C1211.21 43.9128 1211.18 44.1041 1211.14 44.3017Z" fill="#2790C3"/>
<path d="M1209.88 43.1815C1209.68 43.1223 1209.47 43.0699 1209.27 43.0243C1209.05 42.9769 1208.83 42.9356 1208.62 42.9005C1207.84 42.7741 1206.98 42.7144 1206.07 42.7144H1198.33C1198.15 42.714 1197.97 42.7555 1197.8 42.8355C1197.62 42.9218 1197.46 43.0508 1197.34 43.2115C1197.22 43.3721 1197.14 43.5594 1197.11 43.7573L1195.47 54.1774L1195.42 54.4812C1195.53 53.7955 1196.12 53.2898 1196.81 53.2898H1199.71C1205.39 53.2898 1209.84 50.9809 1211.14 44.3017C1211.18 44.1041 1211.21 43.9127 1211.24 43.724C1210.91 43.5503 1210.56 43.3999 1210.17 43.2727C1210.08 43.2406 1209.98 43.2102 1209.88 43.1815" fill="#1F264F"/>
</g>
<path d="M1350 37.5629V54.7094C1350 61.1661 1354.5 65.4336 1360.38 65.4336C1363.23 65.4336 1365.78 64.3408 1367.62 62.4249V64.9702H1371.68V37.5629H1367.58V54.4673C1367.58 58.8144 1364.64 61.7505 1360.84 61.7505C1357 61.7505 1354.11 58.8905 1354.11 54.4673V37.5664H1350V37.5629ZM1375.73 37.5629V64.9702H1379.64V62.4629C1381.44 64.3028 1383.99 65.4371 1386.76 65.4371C1388.14 65.4499 1389.5 65.19 1390.77 64.6724C1392.05 64.1549 1393.2 63.3899 1394.18 62.4218C1395.16 61.4538 1395.93 60.3018 1396.46 59.0326C1396.99 57.7633 1397.26 56.4021 1397.25 55.0275C1397.26 53.6497 1396.99 52.2844 1396.47 51.0106C1395.94 49.7368 1395.17 48.58 1394.19 47.6072C1393.22 46.6344 1392.06 45.8649 1390.78 45.3435C1389.51 44.822 1388.14 44.559 1386.77 44.5695C1385.45 44.5678 1384.14 44.8304 1382.92 45.3418C1381.7 45.8532 1380.6 46.6031 1379.68 47.5471V37.5664H1375.73L1375.73 37.5629ZM1409.86 44.611C1404.03 44.611 1399.61 49.3489 1399.61 54.986C1399.61 60.9344 1404.22 65.3956 1410.21 65.3956C1413.85 65.3956 1416.83 63.7944 1418.82 61.1315L1415.96 59.0184C1414.48 61.0139 1412.52 61.9476 1410.21 61.9476C1406.84 61.9476 1404.15 59.5268 1403.6 56.276H1419.84V54.986C1419.84 49.0377 1415.61 44.611 1409.86 44.611ZM1431.63 44.8462C1429.44 44.8462 1427.83 45.8629 1426.85 47.4676V45.0018H1422.94V64.9702H1426.89V53.6096C1426.89 50.5178 1428.77 48.5258 1431.36 48.5258H1433V44.8427H1431.63V44.8462ZM1409.78 48.0555C1412.72 48.0555 1415.19 50.089 1415.85 53.1393H1403.67C1404.38 50.089 1406.84 48.0555 1409.78 48.0555ZM1386.5 48.097C1390.25 48.097 1393.34 51.1507 1393.34 55.0275C1393.35 56.8525 1392.63 58.606 1391.35 59.9033C1390.07 61.2005 1388.32 61.9358 1386.5 61.9476C1385.59 61.949 1384.69 61.7708 1383.85 61.4232C1383.01 61.0755 1382.25 60.5654 1381.61 59.9222C1380.97 59.2789 1380.46 58.5153 1380.12 57.6753C1379.77 56.8352 1379.6 55.9354 1379.6 55.0275C1379.6 54.1191 1379.77 53.2184 1380.11 52.3774C1380.46 51.5364 1380.96 50.7717 1381.6 50.1274C1382.24 49.4831 1383.01 48.972 1383.85 48.6235C1384.68 48.275 1385.58 48.0961 1386.49 48.097H1386.5Z" fill="white"/>
<defs>
<clipPath id="clip0_181_5598">
<rect width="225" height="60.6445" fill="white" transform="translate(468 21.1777)"/>
</clipPath>
<clipPath id="clip1_181_5598">
<rect width="27" height="31.8516" fill="white" transform="translate(1187 35.5742)"/>
</clipPath>
</defs>
</svg>
